<svg id="visual" viewBox="0 0 900 600" width="900" height="600" xmlns="http://www.w3.org/2000/svg" xmlns:xlink="http://www.w3.org/1999/xlink" version="1.1"><rect x="0" y="0" width="900" height="600" fill="#ffffff"></rect><path d="M449 0L438 7.7C427 15.3 405 30.7 403.5 46C402 61.3 421 76.7 431 92C441 107.3 442 122.7 428.2 138.2C414.3 153.7 385.7 169.3 407 184.8C428.3 200.3 499.7 215.7 523.2 231C546.7 246.3 522.3 261.7 492.7 277C463 292.3 428 307.7 427 323C426 338.3 459 353.7 454.2 369C449.3 384.3 406.7 399.7 410 415.2C413.3 430.7 462.7 446.3 482.7 461.8C502.7 477.3 493.3 492.7 503 508C512.7 523.3 541.3 538.7 516.5 554C491.7 569.3 413.3 584.7 374.2 592.3L335 600L0 600L0 592.3C0 584.7 0 569.3 0 554C0 538.7 0 523.3 0 508C0 492.7 0 477.3 0 461.8C0 446.3 0 430.7 0 415.2C0 399.7 0 384.3 0 369C0 353.7 0 338.3 0 323C0 307.7 0 292.3 0 277C0 261.7 0 246.3 0 231C0 215.7 0 200.3 0 184.8C0 169.3 0 153.7 0 138.2C0 122.7 0 107.3 0 92C0 76.7 0 61.3 0 46C0 30.7 0 15.3 0 7.7L0 0Z" fill="#b2da57"></path><path d="M238 0L234 7.7C230 15.3 222 30.7 232.8 46C243.7 61.3 273.3 76.7 290.8 92C308.3 107.3 313.7 122.7 324.5 138.2C335.3 153.7 351.7 169.3 343.2 184.8C334.7 200.3 301.3 215.7 283.7 231C266 246.3 264 261.7 271.3 277C278.7 292.3 295.3 307.7 313.7 323C332 338.3 352 353.7 363.5 369C375 384.3 378 399.7 363.2 415.2C348.3 430.7 315.7 446.3 288.2 461.8C260.7 477.3 238.3 492.7 234.2 508C230 523.3 244 538.7 270.7 554C297.3 569.3 336.7 584.7 356.3 592.3L376 600L0 600L0 592.3C0 584.7 0 569.3 0 554C0 538.7 0 523.3 0 508C0 492.7 0 477.3 0 461.8C0 446.3 0 430.7 0 415.2C0 399.7 0 384.3 0 369C0 353.7 0 338.3 0 323C0 307.7 0 292.3 0 277C0 261.7 0 246.3 0 231C0 215.7 0 200.3 0 184.8C0 169.3 0 153.7 0 138.2C0 122.7 0 107.3 0 92C0 76.7 0 61.3 0 46C0 30.7 0 15.3 0 7.7L0 0Z" fill="#437c3a"></path></svg>